<?xml version="1.0" encoding="utf-8"?>
<!-- Generator: Adobe Illustrator 21.1.0, SVG Export Plug-In . SVG Version: 6.00 Build 0)  -->
<svg version="1.1" id="Layer_1" xmlns="http://www.w3.org/2000/svg" xmlns:xlink="http://www.w3.org/1999/xlink" x="0px" y="0px"
	 viewBox="0 0 500 500" style="enable-background:new 0 0 500 500;" xml:space="preserve">
<style type="text/css">
	.st0{display:none;fill:#939393;}
	.st1{fill:#000205;}
	.st2{fill:none;stroke:#000000;stroke-width:5.5704;stroke-miterlimit:10;}
	.st3{fill:#231815;}
	.st4{font-family:'Helvetica-Bold';}
	.st5{font-size:29.7088px;}
	.st6{fill:#070000;}
	.st7{font-family:'Arial-Black';}
	.st8{font-size:64.1698px;}
	.st9{display:none;}
	.st10{display:inline;fill:#0068FF;}
	.st11{display:inline;fill:#000205;}
	.st12{display:none;fill:#050000;enable-background:new    ;}
	.st13{font-size:41.9815px;}
	.st14{display:inline;}
	.st15{display:inline;fill:#FFFFFF;}
</style>
<g>
	<path class="st0" d="M436,410.9c0,35.8-29.3,65.2-65.2,65.2H137.1c-35.8,0-65.2-29.3-65.2-65.2V177.1c0-35.8,29.3-65.2,65.2-65.2
		h233.8c35.8,0,65.2,29.3,65.2,65.2v233.8H436z"/>
	<g>
		<path class="st1" d="M368.9,112.5c-0.1-1.6-1.5-2.9-3.1-2.9c-0.7,0-65.1-0.3-116.3-21.8c-0.2-0.1-0.4-0.1-0.6-0.1
			c-0.2,0-0.4-0.1-0.6-0.1l0,0c-0.3,0-0.5,0-0.6,0.1c-0.2,0-0.4,0.1-0.6,0.2c-51.1,21.5-115.6,21.8-116.3,21.8c-1.6,0-3,1.3-3.1,2.9
			c-2.7,40.9,2,77.7,13.7,109.7c9.5,25.6,23.5,48.1,41.6,66.7c30.9,31.8,64,41.8,64.3,41.9c0.2,0,0.7,0.1,0.9,0.1l0,0
			c0.2,0,0.7-0.1,0.9-0.1c0.3-0.1,33.4-10.1,64.3-41.9c18.1-18.7,32.1-41.1,41.6-66.7C366.9,190.3,371.4,153.4,368.9,112.5z
			 M142.7,117.8c4.4,0,8,3.5,8,8c0,4.4-3.5,8-8,8s-8-3.5-8-8C134.8,121.4,138.4,117.8,142.7,117.8z M160.3,240.8
			c-0.4,0.2-0.9,0.4-1.4,0.4c-1,0-2-0.5-2.5-1.5c-25.1-46.2-22.4-93.4-22.3-95.4c0.1-1.6,1.5-2.8,3.1-2.7c1.6,0.1,2.8,1.5,2.7,3.1
			c0,0.5-2.8,47.7,21.6,92.3C162.2,238.3,161.7,240.1,160.3,240.8z M182.7,276.6c-4.4,0-8-3.5-8-8c0-4.4,3.5-8,8-8s8,3.5,8,8
			C190.7,273.1,187.2,276.6,182.7,276.6z M248.4,324.3c-4.4,0-8-3.5-8-8c0-4.4,3.5-8,8-8s8,3.5,8,8
			C256.4,320.7,252.8,324.3,248.4,324.3z M315.5,275.6c-4.4,0-8-3.5-8-8c0-4.4,3.5-8,8-8s8,3.5,8,8
			C323.5,272.1,319.9,275.6,315.5,275.6z M335.3,204.4l-0.1,0.4c-0.2,0.8-0.4,1.5-0.6,2.1l-0.7,2.4c-0.3,0.9-0.5,1.9-0.8,2.8
			c-0.9,2.9-1.8,5.6-2.8,8.2c-7.1,19.3-17.6,36.3-31.3,50.4c-23.6,24.3-48.7,31.7-48.9,31.7c-0.6,0.2-1.2,0.3-1.9,0.3h-0.5
			c-0.3,0-1-0.1-1.4-0.2c-1.1-0.3-25.6-7.9-48.9-31.7c-12-12.3-21.6-26.8-28.6-43.2c-1-2.4-2-4.7-2.9-7.1c-1-2.7-1.9-5.4-2.8-8.2
			c-0.3-0.9-0.5-1.9-0.8-2.8l-0.7-2.3c-0.2-0.7-0.4-1.4-0.6-2l-0.1-0.3v-0.2l-0.3-1c-0.2-0.6-0.4-1.3-0.5-1.9
			c-1.5-6.4-2.8-13.1-3.5-19.9c-0.9-6.8-1.4-14-1.6-21.1c-0.1-3.6-0.1-7.3,0-11s0.2-7.5,0.5-11.2c0.1-0.9,0.3-1.7,0.6-2.4
			c1.1-2.3,3.4-3.7,5.9-3.7c0.5,0,46.8-0.2,83.4-15.6c0.4-0.2,0.8-0.3,1.3-0.4l0.3-0.1l0.1,0.1h0.1c1-0.2,1.4-0.1,2,0l0.5,0.1
			c0.3,0.1,0.6,0.2,0.9,0.3c36.6,15.4,82.9,15.6,83.4,15.6c3.4,0,6.3,2.7,6.5,6.1C342.3,162.1,340.4,184.3,335.3,204.4z
			 M345.4,125.9c0-4.4,3.5-8,8-8c4.4,0,8,3.5,8,8s-3.5,8-8,8C349.1,133.8,345.4,130.2,345.4,125.9z"/>
	</g>
</g>
<g>
	<path class="st2" d="M282.6,242.8h-67.8c-3.7,0-6.7-3-6.7-6.7v-67.8c0-3.7,3-6.7,6.7-6.7h67.8c3.7,0,6.7,3,6.7,6.7v67.8
		C289.3,239.8,286.2,242.8,282.6,242.8z"/>
	<rect x="229.8" y="140.2" width="6" height="19"/>
	<polyline points="220.6,153.6 214.5,153.6 214.5,140.2 220.6,140.2 	"/>
	<rect x="245.7" y="140.2" width="6" height="13.5"/>
	<rect x="276.7" y="140.2" width="6" height="13.5"/>
	<rect x="261.7" y="140.2" width="6" height="19"/>
	<rect x="291.1" y="182.9" width="19" height="6"/>
	<rect x="220.3" y="228.1" width="69.2" height="6"/>
	<rect x="209.4" y="170.4" width="69.2" height="6"/>
	<rect x="296.6" y="167.6" width="13.5" height="6"/>
	<rect x="296.6" y="198.8" width="13.5" height="6"/>
	<rect x="296.7" y="229.8" width="13.5" height="6"/>
	<rect x="291.1" y="214.7" width="19" height="6"/>
	<rect x="187.6" y="215" width="19" height="6"/>
	<rect x="187.6" y="230.3" width="13.5" height="6"/>
	<rect x="187.6" y="199" width="13.5" height="6"/>
	<rect x="187.6" y="168.1" width="13.5" height="6"/>
	<rect x="187.5" y="183.2" width="19" height="6"/>
	<rect x="229.8" y="244.2" width="6" height="19"/>
	<rect x="214.5" y="249.7" width="6" height="13.5"/>
	<rect x="245.7" y="249.7" width="6" height="13.5"/>
	<rect x="276.7" y="249.7" width="6" height="13.5"/>
	<rect x="261.7" y="244.2" width="6" height="19"/>
	<text transform="matrix(1 0 0 1 217.5171 214.0054)" class="st3 st4 st5">CPU</text>
</g>

<g class="st9">
	
		<ellipse transform="matrix(0.7071 -0.7071 0.7071 0.7071 -29.031 312.2102)" class="st10" cx="362.4" cy="191.1" rx="1.9" ry="1.2"/>
	
		<ellipse transform="matrix(0.7071 -0.7071 0.7071 0.7071 6.1902 333.6904)" class="st10" cx="405.9" cy="159.4" rx="1.9" ry="1.2"/>
	<ellipse transform="matrix(0.7071 -0.7071 0.7071 0.7071 68.82 271.1131)" class="st10" cx="361.7" cy="52.5" rx="1.9" ry="1.2"/>
	<ellipse transform="matrix(0.7072 -0.707 0.707 0.7072 -19.6513 272.5115)" class="st10" cx="319.2" cy="160" rx="1.9" ry="1.2"/>
	<ellipse transform="matrix(0.707 -0.7072 0.7072 0.707 38.4165 227.1631)" class="st10" cx="293.4" cy="67.2" rx="1.9" ry="1.2"/>
	<path class="st11" d="M442,59.9c-0.1-1.1-1-1.8-1.9-1.8c-0.4,0-42.4-0.2-75.6-14.2c-0.1,0-0.2-0.1-0.3-0.1c-0.1,0-0.2-0.1-0.4-0.1
		l0,0c-0.2,0-0.3,0-0.4,0.1c-0.1,0-0.3,0-0.3,0.1C329.7,57.8,287.8,58,287.4,58c-1.1,0-1.9,0.9-1.9,1.8c-1.7,26.6,1.3,50.6,8.9,71.3
		c6.1,16.6,15.2,31.2,27,43.4c20.2,20.7,41.6,27.2,41.8,27.2c0.1,0,0.4,0.1,0.5,0.1l0,0c0.1,0,0.4,0,0.5-0.1
		c0.2-0.1,21.7-6.5,41.8-27.2c11.8-12.1,20.9-26.7,27-43.4C440.7,110.4,443.7,86.4,442,59.9z M363.3,48.8c2.9,0,5.3,2.4,5.3,5.3
		s-2.4,5.3-5.3,5.3c-2.9,0-5.3-2.4-5.3-5.3C358,51.1,360.4,48.8,363.3,48.8z M294.9,63.2c2.9,0,5.3,2.4,5.3,5.3
		c0,2.9-2.4,5.3-5.3,5.3c-2.9,0-5.3-2.4-5.3-5.3C289.7,65.5,292.1,63.2,294.9,63.2z M306.2,143.2c-0.3,0.1-0.5,0.2-0.9,0.2
		c-0.6,0-1.3-0.3-1.6-1c-16.4-30-14.6-60.8-14.5-62.1c0.1-1.1,1-1.8,1.9-1.7c1.1,0.1,1.8,1,1.7,1.9c0,0.3-1.8,31,14.1,60.1
		C307.5,141.6,307.2,142.8,306.2,143.2z M320.9,166.6c-2.9,0-5.3-2.4-5.3-5.3c0-2.9,2.4-5.3,5.3-5.3c2.9,0,5.3,2.4,5.3,5.3
		C326.1,164.2,323.8,166.6,320.9,166.6z M363.6,197.6c-2.9,0-5.3-2.4-5.3-5.3c0-2.9,2.4-5.3,5.3-5.3s5.3,2.4,5.3,5.3
		C368.8,195.2,366.5,197.6,363.6,197.6z M407.3,165.9c-2.9,0-5.3-2.4-5.3-5.3s2.4-5.3,5.3-5.3c2.9,0,5.3,2.4,5.3,5.3
		C412.4,163.6,410.2,165.9,407.3,165.9z M420.1,119.6v0.2c-0.1,0.5-0.2,1-0.4,1.4l-0.4,1.5c-0.2,0.6-0.3,1.2-0.5,1.8
		c-0.5,1.8-1.2,3.6-1.8,5.4c-4.6,12.5-11.5,23.6-20.4,32.7c-15.3,15.8-31.6,20.6-31.9,20.7c-0.4,0.1-0.8,0.2-1.2,0.2h-0.3
		c-0.2,0-0.6-0.1-0.9-0.1c-0.6-0.2-16.6-5.1-31.9-20.7c-7.8-8-14.1-17.5-18.6-28.1c-0.6-1.5-1.3-3.1-1.8-4.6
		c-0.6-1.7-1.2-3.5-1.8-5.4c-0.2-0.6-0.3-1.2-0.5-1.8l-0.4-1.5c-0.1-0.4-0.2-0.9-0.3-1.3v-0.2v-0.1l-0.2-0.6
		c-0.1-0.4-0.2-0.8-0.3-1.2c-1-4.2-1.8-8.5-2.4-13c-0.5-4.4-0.9-9.1-1.1-13.7c-0.1-2.4-0.1-4.7,0-7.2c0-2.5,0.1-4.8,0.3-7.3
		c0-0.5,0.2-1.1,0.4-1.6c0.8-1.5,2.3-2.5,3.9-2.5c0.3,0,30.5-0.1,54.2-10.1c0.2-0.1,0.5-0.2,0.9-0.2l0.2-0.1l0,0l0,0
		c0.6-0.1,0.9,0,1.3,0l0.3,0.1c0.2,0,0.4,0.1,0.5,0.2c23.8,10,54,10.1,54.2,10.1c2.3,0,4.1,1.7,4.3,4
		C424.7,92,423.5,106.5,420.1,119.6z M426.8,68.4c0-2.9,2.4-5.3,5.3-5.3s5.3,2.4,5.3,5.3c0,2.9-2.4,5.3-5.3,5.3
		C429.1,73.7,426.8,71.3,426.8,68.4z"/>
	
		<ellipse transform="matrix(0.7071 -0.7071 0.7071 0.7071 78.8089 324.1295)" class="st10" cx="430.7" cy="66.9" rx="1.9" ry="1.2"/>
</g>
<text transform="matrix(1 0 0 1 268.7314 247.4595)" class="st12 st7 st13">ArmVMP</text>
<g class="st9">
	<path class="st14" d="M334.7,116.3c-1-0.1-1.9-0.3-3-0.3c-2,0-2.9-0.6-2.9-2.9c0-2.4,1.5-2,2.9-2.1c1.3-0.1,2.9,0.5,3.3-1.5
		c0.4-2.4-0.2-3.1-2.9-3.2c-1.4-0.1-3.2,0.6-3.3-1.9c-0.1-2.5,1.1-2.8,3.1-3c1.1-0.1,2.7-0.6,3-1.4c0.9-2.1-0.1-3-2.5-3
		c-3.5-0.1-3.5-0.1-3.5-3.5c0-1.9,0-4,0-5.9c0.1-2.9,2-4.8,4.8-4.9c1.9-0.1,4,0,5.9,0c3.5,0,3.6,0,3.5,3.5c0,2,0.8,2.7,2.7,2.7
		c2-0.1,1.5-1.6,1.8-2.7c0.3-1.2,0.6-2.9,1.5-3.3c2.1-1,3.1,0.1,3.4,2.5c0.1,1.2,0.6,2.9,1.4,3.3c2,1,3.2-0.1,3.3-2.6
		c0.1-1.4-0.6-3.2,1.9-3.4c2.4-0.2,2.9,1.1,3,3.1c0,1.2-0.5,2.9,1.7,3.1c2.4,0.2,2.9-0.8,2.8-3c-0.1-3,0.5-3.4,3.1-3.2
		c2.4,0.2,2,2,1.9,3.4c-0.2,2.3,0.8,2.9,2.8,2.7c2.1-0.2,1.4-1.8,1.5-2.9c0.1-1.5-0.2-3,1.9-3.2c2.5-0.2,3,0.3,3.2,3
		c0.1,1.2-0.8,2.9,1.5,3.2c1.8,0.2,2.9-0.2,3-2.4c0.1-3.8,0.2-3.8,4-3.8c1.8,0,3.6,0,5.4,0c3.1,0.1,4.7,1.7,4.7,4.8
		c0,2.1-0.1,4.3,0,6.4c0.2,2.5-0.6,3.5-3.1,3.1c-1.4-0.2-2.8-0.1-3,1.8c-0.2,2.1,1.1,2.7,2.9,2.7c1.5,0,3.1-0.3,3.3,2.1
		c0.2,2.8-1.3,2.8-3.3,2.8c-1,0-2.3,0.6-2.7,1.4c-0.3,0.6,0,2,0.5,2.7c0.4,0.5,1.5,0.5,2.4,0.6c1.5,0.1,3-0.3,3.1,2.3
		c0,2.5-1.2,2.9-3.2,2.8c-1.3,0-2.7-0.2-3,1.6c-0.3,2.1,0.8,2.9,2.8,2.8c1.5-0.1,3.3-0.5,3.3,2.1c0,2.3-0.6,3.1-3,3
		c-1.1,0-2.7,0.5-3.1,1.3c-0.9,1.8,0.3,2.9,2.8,2.9c1.7,0,3.2-0.2,3.2,2.4c0,2.1-0.6,3.1-2.8,2.8c-0.3,0-0.6,0-1.1,0
		c-1.6-0.1-2.4,0.8-2.4,2.3c0,1.6,0.9,2,2.3,2c3.9,0.2,3.9,0.2,3.9,4.1c0,2.3,0,4.5-0.1,6.7c-0.1,2-1.4,3.3-3.4,3.4
		c-2.9,0.1-5.8,0.1-8.8,0c-2.5-0.1-1.6-2.1-1.9-3.4c-0.2-0.9-0.5-2-1.3-2.5c-0.5-0.3-2-0.1-2.5,0.4c-0.5,0.6-0.6,1.9-0.6,2.8
		c0.2,2.3-0.8,2.9-2.9,2.7c-1.6-0.1-2.5-0.5-2.4-2.3c0-0.6,0-1.2,0-1.8c0.1-1.5-0.8-2.1-2.1-2.1c-1.5,0-2,0.8-2.1,2.3
		c-0.1,1.6,1.1,4-2.3,4.1c-2,0-3-0.5-2.9-2.7c0.1-1.1-0.2-2.6-1-3.1c-1.7-1.3-3.3,0-3.4,2.6c-0.1,1.4,0.4,3.2-2,3.3
		c-2,0.1-3.1-0.4-2.8-2.7c0-0.3,0-0.6,0-1.1c0-1.7-0.9-2.5-2.6-2.5c-1.6,0-2.1,1-2.3,2.5c-0.1,1.6,0.9,3.8-2.3,3.8
		c-1.9-0.1-2.7-0.8-2.6-2.6c0-0.5,0-1.1,0-1.5c-0.1-1.5-0.8-2.1-2.4-2.1c-1.5,0.1-2,0.8-2.1,2.3c-0.2,4-0.2,4-4.1,3.9
		c-1.9,0-4,0-5.9,0c-2.5-0.1-4.2-1.6-4.3-4.1c-0.1-2.7-0.1-5.4,0-7.9c0-2.5,1.9-2.1,3.5-2.3c2.5-0.1,3.1-0.9,2.6-3.1
		c-0.4-2-2-1.1-3.1-1.2c-2.8-0.1-3.1-0.5-3-3.1c0.1-2.3,1.7-1.9,3.1-2c1.1-0.1,2.7,0.8,3.1-1.3c0.4-2.4-0.1-2.9-2.8-2.9
		c-1.6,0-3.3,0.4-3.4-2.3c0-2,0.4-3,2.7-2.9C335.3,120.5,335.4,120.3,334.7,116.3z M383.5,116.1c0.1,0,0.1,0,0.2,0
		c0-1.3,0.2-2.6-0.1-3.9c-0.2-0.8-1.1-1.4-1.6-2c-0.5,0.8-1.5,1.4-1.6,2.1c-0.2,2.5-0.1,4.9-0.1,7.4c0,1.8-0.9,2.9-2.8,2.9
		c-1.8,0-2.5-1.3-2.6-2.9c-0.1-2.4,0.1-4.8-0.2-7.2c-0.1-0.9-1.1-1.6-1.6-2.4c-0.6,0.8-1.8,1.5-1.8,2.1c0,2.9,0.1,5.8,0.5,8.7
		c0.5,3.1,2.8,4.6,6.1,4.5c3-0.2,5.3-2.3,5.5-5.4C383.6,118.9,383.5,117.5,383.5,116.1z M358.5,117.8
		C358.5,117.8,358.4,117.8,358.5,117.8c0,1.8-0.1,3.6,0.1,5.4c0.1,0.8,1,1.5,1.4,2.3c0.5-0.8,1.6-1.5,1.6-2.1
		c-0.2-2.7,0.9-3.6,3.4-3.8c2.1-0.1,3.5-1.6,3.9-3.8c0.4-2.3-0.3-4.4-2.6-4.9c-2.1-0.5-4.5-0.4-6.9-0.4c-0.3,0-1,1.1-1,1.7
		C358.4,114,358.5,115.9,358.5,117.8z M344.2,117.8c-0.4,5.4,4.6,8.5,9.8,7.5c0.6-0.1,1.1-1.1,1.6-1.6c-0.6-0.4-1.3-0.9-1.9-1.1
		c-0.3-0.1-0.6,0-1,0c-4.1-0.1-6.1-3.3-4.5-7.1c1.1-2.6,3.1-3,5.6-3c0.6,0,1.3-0.6,1.9-1c-0.4-0.4-0.8-1.3-1.2-1.3
		C348.2,109,344,112.9,344.2,117.8z"/>
	<path class="st15" d="M383.5,116.1c0,1.4,0.1,2.8,0,4.1c-0.2,3-2.5,5.1-5.5,5.4c-3.3,0.2-5.6-1.3-6.1-4.5c-0.4-2.9-0.5-5.8-0.5-8.7
		c0-0.8,1.2-1.5,1.8-2.1c0.5,0.8,1.5,1.6,1.6,2.4c0.2,2.4,0.1,4.8,0.2,7.2c0,1.6,0.6,2.9,2.6,2.9c1.9,0,2.8-1.1,2.8-2.9
		c0.1-2.5-0.1-4.9,0.1-7.4c0.1-0.8,1-1.4,1.6-2.1c0.5,0.6,1.4,1.3,1.6,2c0.2,1.2,0.1,2.6,0.1,3.9
		C383.6,116.1,383.6,116.1,383.5,116.1z"/>
	<path class="st15" d="M358.5,117.8c0-1.9-0.1-3.8,0-5.7c0-0.6,0.6-1.7,1-1.7c2.3,0,4.6-0.2,6.9,0.4c2.3,0.6,3,2.7,2.6,4.9
		c-0.3,2.1-1.7,3.6-3.9,3.8c-2.6,0.1-3.8,1.1-3.4,3.8c0.1,0.6-1,1.5-1.6,2.1c-0.5-0.8-1.4-1.4-1.4-2.3
		C358.3,121.3,358.4,119.5,358.5,117.8C358.4,117.8,358.5,117.8,358.5,117.8z M360.7,114.9c1.1,1.1,2.1,2.4,2.4,2.3
		c1.1-0.6,1.8-1.5,2.8-2.4c-0.9-0.8-1.6-1.8-2.6-2.3C362.9,112.4,361.8,113.8,360.7,114.9z"/>
	<path class="st15" d="M344.2,117.8c-0.2-5,4.1-8.8,10.2-7.6c0.4,0.1,0.8,0.9,1.2,1.3c-0.6,0.3-1.3,1-1.9,1c-2.5,0-4.5,0.4-5.6,3
		c-1.6,3.8,0.4,7,4.5,7.1c0.3,0,0.8-0.1,1,0c0.6,0.3,1.3,0.8,1.9,1.1c-0.5,0.5-1,1.5-1.6,1.6C348.8,126.3,343.8,123.3,344.2,117.8z"
		/>
	<path class="st14" d="M360.7,114.9c1.1-1.1,2.1-2.5,2.5-2.4c1,0.4,1.7,1.5,2.6,2.3c-0.9,0.9-1.7,1.8-2.8,2.4
		C362.9,117.4,361.8,116.1,360.7,114.9z"/>
</g>
</svg>
